  <svg
      width="15vh"
      height="9vh"
      viewBox="0 0 141 82"
      fill="none"
      xmlns="http://www.w3.org/2000/svg"
    >
      <path
        d="M55.1472 45.8675C49.5917 43.5293 46.8139 42.3603 45.3857 41.4503C32.5423 33.2668 33.1927 14.3037 46.5667 7.01944C48.0539 6.20945 50.9052 5.23346 56.6079 3.28148L62.605 1.2287C63.0445 1.07826 63.2643 1.00304 63.4844 0.933335C65.29 0.361505 67.1677 0.0490485 69.0611 0.00532912C69.2919 0 69.5242 0 69.9887 0H118.2C120.8 0 122.101 0 123.195 0.120781C132.503 1.14841 139.852 8.4972 140.879 17.8053C141 18.8993 141 20.1996 141 22.8V47.6673C141 51.3985 141 53.2642 140.81 54.6317C139.159 66.5342 127.459 74.304 115.848 71.2087C114.514 70.8531 112.795 70.1294 109.356 68.682L55.1472 45.8675Z"
        fill="#2E2E2E"
      />
      <path
        d="M54.9296 9.76702C54.0413 8.88683 54.4346 7.84045 55.7784 7.50832V7.50832C56.8925 7.23298 58.3033 7.54516 59.1165 8.24697L100.875 44.2842L92.9414 47.4343L54.9296 9.76702Z"
        fill="#C2C2C2"
      />
      <path
        d="M88.6931 37.9841L101.676 46.4944L108.397 55.3007L95.9255 48.9351L88.6931 37.9841Z"
        fill="#C2C2C2"
      />
      <path
        d="M108.172 55.5272C109.454 56.6955 113.055 56.1797 114.642 56.1053C116.32 56.0266 117.951 55.6387 119.473 55.0263C121.07 54.3838 123.534 52.751 124.317 52.329C125.631 51.6202 126.49 51.25 128.105 50.1711C129.719 49.0921 130.448 48.6169 131.313 47.4737C133.784 44.2073 133.54 38.9332 132.54 34.7733C131.744 31.4656 129.441 28.5543 127.002 26.2921C123.8 23.3232 119.863 21.0142 115.607 19.9856C113.215 19.4072 110.854 19.2112 108.43 19.6931C106.811 20.015 104.762 20.4613 103.598 21.751C102.588 22.8704 102.171 24.6786 101.747 26.0794C101.241 27.7482 100.813 29.4062 101.646 31.0458C103.702 35.0929 107.65 38.1511 111.618 40.1333C115.212 41.9282 119.456 43.3735 123.368 41.8455C124.561 41.3795 125.799 40.7276 126.842 39.9791C128.007 39.1439 128.347 38.0044 128.105 36.6079C127.524 33.2475 124.601 30.6678 121.681 29.2485C120.555 28.7013 119.342 28.4006 118.138 28.0787C116.573 27.6605 114.844 27.0958 113.231 27.6214C111.929 28.0456 110.62 29.0825 109.778 30.1525C109.436 30.5865 109.018 31.2613 109.327 31.8222C109.829 32.7333 110.851 33.4668 111.656 34.0874C112.57 34.7923 113.539 35.3003 114.642 35.6401C116.431 36.1914 118.295 36.4726 120.159 36.5972"
        stroke="#C2C2C2"
        strokeLinecap="round"
      />
    </svg>